<?xml version="1.0" encoding="UTF-8" standalone="no"?>
<svg width="800" height="600" xmlns="http://www.w3.org/2000/svg">
  <style>
    .label { font-family: Arial, sans-serif; font-size: 12px; }
    .title { font-family: Arial, sans-serif; font-size: 24px; font-weight: bold; }
  </style>
  
  <!-- Background -->
  <rect width="100%" height="100%" fill="#e6f3ff"/>
  
  <!-- Forested areas -->
  <path d="M0 0 Q400 50 800 0 Q750 300 800 600 L0 600 Z" fill="#228B22" opacity="0.3"/>
  
  <!-- Oakridge Institute Campus -->
  <ellipse cx="400" cy="300" rx="200" ry="150" fill="#f0f0f0" stroke="#333" stroke-width="2"/>
  <text x="400" y="300" text-anchor="middle" class="label">Oakridge Institute for Advanced Studies</text>
  
  <!-- Key areas within the campus -->
  <circle cx="350" cy="250" r="20" fill="#ff6b6b"/>
  <text x="350" y="250" text-anchor="middle" class="label">Quantum Lab</text>
  
  <rect x="450" y="200" width="40" height="40" fill="#4ecdc4"/>
  <text x="470" y="230" text-anchor="middle" class="label">Entanglement Dorms</text>
  
  <polygon points="350,350 370,380 330,380" fill="#45b7d1"/>
  <text x="350" y="400" text-anchor="middle" class="label">Probability Cafeteria</text>
  
  <rect x="420" y="320" width="40" height="30" fill="#f7b731"/>
  <text x="440" y="365" text-anchor="middle" class="label">Uncertainty Library</text>
  
  <ellipse cx="300" cy="320" rx="25" ry="15" fill="#9b59b6"/>
  <text x="300" y="350" text-anchor="middle" class="label">Superposition Gymnasium</text>
  
  <!-- Wavefront Town -->
  <path d="M600 400 Q650 450 700 400 Q750 450 800 400 L800 600 L600 600 Z" fill="#d1c4e9"/>
  <text x="700" y="500" text-anchor="middle" class="label">Wavefront Town</text>
  
  <!-- Schrödinger's Cat Café -->
  <rect x="650" y="450" width="30" height="30" fill="#ff7043"/>
  <text x="665" y="495" text-anchor="middle" class="label">Schrödinger's Cat Café</text>
  
  <!-- Quantum Emporium -->
  <polygon points="720,460 735,480 705,480" fill="#66bb6a"/>
  <text x="720" y="500" text-anchor="middle" class="label">Quantum Emporium</text>
  
  <!-- Quantum Realm hints -->
  <path d="M50 50 Q100 100 150 50 Q200 100 250 50" fill="none" stroke="#9c27b0" stroke-width="2" opacity="0.5"/>
  <path d="M550 100 Q600 150 650 100 Q700 150 750 100" fill="none" stroke="#9c27b0" stroke-width="2" opacity="0.5"/>
  <text x="100" y="30" class="label" fill="#9c27b0">Quantum Realm Influence</text>
  
  <!-- Title -->
  <text x="400" y="30" text-anchor="middle" class="title">World of Quantum Tangles</text>
</svg>